<?xml version="1.0" encoding="iso-8859-1"?>
<!-- Uploaded to: SVG Repo, www.svgrepo.com, Generator: SVG Repo Mixer Tools -->
<svg fill="#000000" version="1.1" id="Layer_1" xmlns="http://www.w3.org/2000/svg" xmlns:xlink="http://www.w3.org/1999/xlink" 
	 viewBox="0 0 511.999 511.999" xml:space="preserve">
<g>
	<g>
		<g>
			<path d="M255.992,130.147c-72.956,0-132.31,59.354-132.31,132.31s59.354,132.31,132.31,132.31s132.31-59.354,132.31-132.31
				S328.948,130.147,255.992,130.147z M255.992,379.141c-64.34,0-116.685-52.344-116.685-116.685s52.344-116.685,116.685-116.685
				s116.685,52.344,116.685,116.685S320.333,379.141,255.992,379.141z"/>
			<rect x="248.183" y="3.886" width="15.625" height="86.189"/>
			<rect x="74.401" y="89.569" transform="matrix(0.6428 0.766 -0.766 0.6428 116.5632 -55.22)" width="86.186" height="15.625"/>
			<rect x="0.702" y="217.223" transform="matrix(0.9848 0.1736 -0.1736 0.9848 39.7318 -4.186)" width="86.187" height="15.625"/>
			<rect x="61.564" y="327.097" transform="matrix(-0.5 -0.866 0.866 -0.5 -216.5271 615.3699)" width="15.625" height="86.187"/>
			
				<rect x="174.486" y="421.846" transform="matrix(-0.9397 -0.342 0.342 -0.9397 194.5944 964.1903)" width="15.625" height="86.189"/>
			
				<rect x="286.609" y="457.133" transform="matrix(-0.342 -0.9397 0.9397 -0.342 5.552 933.7798)" width="86.189" height="15.625"/>
			<rect x="399.521" y="362.388" transform="matrix(-0.866 -0.5 0.5 -0.866 640.8217 912.1138)" width="86.187" height="15.625"/>
			
				<rect x="425.11" y="217.209" transform="matrix(-0.9848 0.1736 -0.1736 -0.9848 968.3627 365.3447)" width="86.187" height="15.625"/>
			
				<rect x="386.672" y="54.302" transform="matrix(0.766 0.6428 -0.6428 0.766 154.9085 -230.7925)" width="15.625" height="86.186"/>
		</g>
	</g>
</g>
</svg>